<?xml version="1.0" encoding="UTF-8"?>
<svg width="678px" height="205px" viewBox="0 0 678 205" version="1.1" xmlns="http://www.w3.org/2000/svg" xmlns:xlink="http://www.w3.org/1999/xlink">
    <title>万贸达 定稿最终文件 1105</title>
    <g id="页面-1" stroke="none" stroke-width="1" fill="none" fill-rule="evenodd">
        <g id="万贸达-定稿最终文件-1105" transform="translate(0.9, 0.31)">
            <g id="编组" transform="translate(0.0069, 170.6006)" fill="#595757" fill-rule="nonzero">
                <path d="M11.26315,5.05942209 L11.26315,12.4994221 C11.26315,16.3594221 10.54315,20.0394221 9.09314995,23.5494221 C7.64314995,27.0594221 5.46314995,30.1794221 2.53314995,32.9094221 C1.96314995,33.4694221 1.40314995,33.4494221 0.843149952,32.8394221 L0.363149952,32.2894221 C-0.156850048,31.7194221 -0.116850048,31.1394221 0.473149952,30.5194221 C3.07314995,28.0894221 5.00314995,25.3494221 6.25314995,22.3094221 C7.50314995,19.2694221 8.13314995,15.9994221 8.13314995,12.5094221 L8.13314995,5.10942209 C8.13314995,4.27942209 8.54314995,3.85942209 9.35314995,3.85942209 L10.05315,3.85942209 C10.86315,3.85942209 11.27315,4.26942209 11.27315,5.07942209 L11.26315,5.05942209 Z M33.06315,3.50942209 L33.06315,4.20942209 C33.06315,5.01942209 32.65315,5.42942209 31.84315,5.42942209 L1.56314995,5.42942209 C0.753149952,5.42942209 0.343149952,5.01942209 0.343149952,4.20942209 L0.343149952,3.50942209 C0.343149952,2.69942209 0.753149952,2.28942209 1.56314995,2.28942209 L31.84315,2.28942209 C32.65315,2.28942209 33.06315,2.69942209 33.06315,3.50942209 Z M29.31315,13.9894221 C29.70315,14.3694221 29.90315,14.9294221 29.90315,15.6694221 L29.90315,31.1794221 C29.90315,31.8894221 29.70315,32.4394221 29.31315,32.8194221 C28.92315,33.1994221 28.36315,33.3894221 27.65315,33.3894221 L22.68315,33.3894221 C21.89315,33.3894221 21.50315,33.0094221 21.50315,32.2494221 L21.50315,31.5494221 C21.50315,30.7594221 21.89315,30.3694221 22.68315,30.3694221 L26.73315,30.3694221 L26.73315,16.4494221 L10.89315,16.4494221 C10.10315,16.4494221 9.71314995,16.0694221 9.71314995,15.3094221 L9.71314995,14.6094221 C9.71314995,13.8294221 10.10315,13.4294221 10.89315,13.4294221 L27.65315,13.4294221 C28.36315,13.4294221 28.91315,13.6194221 29.31315,13.9994221 L29.31315,13.9894221 Z" id="形状"></path>
                <path d="M60.54315,28.1194221 L60.54315,28.7794221 C60.54315,29.5694221 60.16315,29.9594221 59.40315,29.9594221 L50.01315,29.9594221 C49.22315,29.9594221 48.83315,29.5694221 48.83315,28.7794221 L48.83315,28.1194221 C48.83315,27.3294221 49.22315,26.9394221 50.01315,26.9394221 L59.40315,26.9394221 C60.16315,26.9394221 60.54315,27.3294221 60.54315,28.1194221 Z M63.60315,2.66942209 L63.60315,3.29942209 C63.60315,4.08942209 63.21315,4.47942209 62.42315,4.47942209 L50.15315,4.47942209 C49.36315,4.47942209 48.97315,4.08942209 48.97315,3.29942209 L48.97315,2.66942209 C48.97315,1.87942209 49.36315,1.48942209 50.15315,1.48942209 L62.42315,1.48942209 C63.21315,1.48942209 63.60315,1.87942209 63.60315,2.66942209 Z M53.44315,4.06942209 L53.44315,27.3494221 C53.44315,28.0894221 53.07315,28.4594221 52.33315,28.4594221 L51.74315,28.4594221 C51.00315,28.4594221 50.63315,28.0894221 50.63315,27.3494221 L50.63315,4.06942209 C50.63315,3.35942209 51.00315,2.99942209 51.74315,2.99942209 L52.33315,2.99942209 C53.07315,2.99942209 53.44315,3.35942209 53.44315,4.06942209 Z M60.54315,11.5394221 L60.54315,12.2394221 C60.54315,13.0294221 60.16315,13.4194221 59.40315,13.4194221 L53.21315,13.4194221 C52.42315,13.4194221 52.03315,13.0294221 52.03315,12.2394221 L52.03315,11.5394221 C52.03315,10.7494221 52.42315,10.3594221 53.21315,10.3594221 L59.40315,10.3594221 C60.16315,10.3594221 60.54315,10.7494221 60.54315,11.5394221 Z M60.54315,19.1694221 L60.54315,19.8694221 C60.54315,20.6594221 60.16315,21.0494221 59.40315,21.0494221 L53.21315,21.0494221 C52.42315,21.0494221 52.03315,20.6594221 52.03315,19.8694221 L52.03315,19.1694221 C52.03315,18.3794221 52.42315,17.9894221 53.21315,17.9894221 L59.40315,17.9894221 C60.16315,17.9894221 60.54315,18.3794221 60.54315,19.1694221 Z M61.98315,4.06942209 L61.98315,32.8394221 C61.98315,33.5794221 61.61315,33.9494221 60.87315,33.9494221 L60.24315,33.9494221 C59.50315,33.9494221 59.13315,33.5794221 59.13315,32.8394221 L59.13315,4.06942209 C59.13315,3.35942209 59.50315,2.99942209 60.24315,2.99942209 L60.87315,2.99942209 C61.61315,2.99942209 61.98315,3.35942209 61.98315,4.06942209 Z M74.28315,9.40942209 L74.28315,14.7494221 C74.28315,18.5094221 73.59315,22.0094221 72.20315,25.2694221 C70.81315,28.5194221 68.56315,31.2894221 65.44315,33.5794221 C64.85315,34.0494221 64.32315,33.9494221 63.86315,33.2894221 L63.45315,32.7394221 C63.01315,32.1294221 63.11315,31.5694221 63.74315,31.0794221 C66.42315,29.1194221 68.34315,26.7494221 69.51315,23.9694221 C70.68315,21.1894221 71.26315,18.1294221 71.26315,14.7594221 L71.26315,9.41942209 C71.26315,8.62942209 71.64315,8.23942209 72.40315,8.23942209 L73.10315,8.23942209 C73.89315,8.23942209 74.28315,8.62942209 74.28315,9.41942209 L74.28315,9.40942209 Z M82.98315,18.2494221 L82.98315,18.8794221 C82.98315,19.6394221 82.59315,20.0194221 81.80315,20.0194221 L64.45315,20.0194221 C63.66315,20.0194221 63.27315,19.6394221 63.27315,18.8794221 L63.27315,18.2494221 C63.27315,17.4594221 63.66315,17.0694221 64.45315,17.0694221 L81.80315,17.0694221 C82.59315,17.0694221 82.98315,17.4594221 82.98315,18.2494221 Z M82.43315,7.92942209 L82.43315,8.51942209 C82.43315,9.30942209 82.04315,9.69942209 81.25315,9.69942209 L64.93315,9.69942209 C64.17315,9.69942209 63.79315,9.30942209 63.79315,8.51942209 L63.79315,7.92942209 C63.79315,7.13942209 64.17315,6.74942209 64.93315,6.74942209 L81.25315,6.74942209 C82.04315,6.74942209 82.43315,7.13942209 82.43315,7.92942209 Z M69.64315,1.04942209 L70.27315,4.47942209 C70.39315,5.26942209 70.06315,5.71942209 69.28315,5.83942209 L68.65315,5.90942209 C67.86315,6.02942209 67.41315,5.69942209 67.29315,4.91942209 L66.66315,1.48942209 C66.54315,0.699422092 66.87315,0.249422092 67.65315,0.129422092 L68.28315,0.0594220922 C69.07315,-0.0605779078 69.52315,0.269422092 69.64315,1.04942209 Z M76.11315,18.5394221 C76.32315,18.7094221 76.46315,18.9894221 76.53315,19.3894221 C76.92315,21.5794221 77.65315,23.6594221 78.70315,25.6294221 C79.76315,27.6094221 81.14315,29.4194221 82.86315,31.0594221 C83.42315,31.6294221 83.42315,32.1994221 82.86315,32.7894221 L82.42315,33.2294221 C81.85315,33.8194221 81.29315,33.8194221 80.73315,33.2294221 C78.64315,31.1894221 76.99315,28.9894221 75.78315,26.6194221 C74.56315,24.2494221 73.81315,21.9694221 73.51315,19.7894221 C73.44315,19.3694221 73.48315,19.0494221 73.64315,18.8294221 C73.80315,18.6094221 74.09315,18.4694221 74.51315,18.4194221 L75.17315,18.3794221 C75.59315,18.3094221 75.90315,18.3594221 76.11315,18.5294221 L76.11315,18.5394221 Z M79.74315,1.48942209 L79.11315,4.91942209 C78.99315,5.70942209 78.53315,6.03942209 77.75315,5.90942209 L77.09315,5.83942209 C76.33315,5.71942209 76.01315,5.25942209 76.13315,4.47942209 L76.72315,1.04942209 C76.87315,0.259422092 77.33315,-0.0705779078 78.12315,0.0594220922 L78.75315,0.129422092 C79.54315,0.249422092 79.87315,0.709422092 79.74315,1.48942209 Z" id="形状"></path>
                <path d="M111.38315,20.3094221 L111.90315,20.6794221 C112.51315,21.1194221 112.61315,21.6394221 112.19315,22.2294221 C110.59315,24.3694221 108.84315,26.3394221 106.94315,28.1394221 C105.04315,29.9494221 103.19315,31.4394221 101.40315,32.6194221 C100.76315,33.0394221 100.23315,32.9094221 99.82315,32.2494221 L99.45315,31.6994221 C99.03315,31.0894221 99.16315,30.5694221 99.82315,30.1494221 C103.60315,27.5694221 106.92315,24.3894221 109.77315,20.6094221 C110.24315,19.9694221 110.78315,19.8694221 111.39315,20.3194221 L111.38315,20.3094221 Z M103.46315,17.7694221 L103.46315,19.0594221 L128.77315,19.0594221 C129.46315,19.0594221 129.99315,19.2394221 130.35315,19.5894221 C130.72315,19.9494221 130.90315,20.4694221 130.90315,21.1594221 L130.90315,31.6894221 C130.90315,32.3494221 130.72315,32.8694221 130.37315,33.2594221 C130.01315,33.6394221 129.48315,33.8294221 128.77315,33.8294221 L125.38315,33.8294221 C124.62315,33.8294221 124.24315,33.4494221 124.24315,32.6894221 L124.24315,32.0594221 C124.24315,31.2994221 124.62315,30.9194221 125.38315,30.9194221 L127.88315,30.9194221 L127.88315,21.9294221 L102.57315,21.9294221 C101.88315,21.9294221 101.35315,21.7494221 100.99315,21.3994221 C100.62315,21.0394221 100.44315,20.5194221 100.44315,19.8294221 L100.44315,17.7694221 C100.44315,17.1794221 100.83315,16.8894221 101.62315,16.8894221 L102.32315,16.8894221 C103.08315,16.8894221 103.46315,17.1794221 103.46315,17.7694221 Z M102.52315,1.57942209 C102.88315,1.21942209 103.40315,1.04942209 104.09315,1.04942209 L126.78315,1.04942209 C127.44315,1.04942209 127.96315,1.21942209 128.33315,1.56942209 C128.70315,1.90942209 128.88315,2.43942209 128.88315,3.14942209 L128.88315,13.5694221 C128.88315,14.2294221 128.70315,14.7494221 128.35315,15.1194221 C127.99315,15.4894221 127.47315,15.6694221 126.78315,15.6694221 L104.09315,15.6694221 C103.43315,15.6694221 102.91315,15.4894221 102.54315,15.1394221 C102.17315,14.7794221 101.99315,14.2594221 101.99315,13.5694221 L101.99315,3.14942209 C101.99315,2.45942209 102.17315,1.93942209 102.52315,1.57942209 L102.52315,1.57942209 Z M127.37315,8.07942209 L127.37315,8.62942209 C127.37315,9.31942209 127.03315,9.65942209 126.34315,9.65942209 L104.53315,9.65942209 C103.84315,9.65942209 103.50315,9.31942209 103.50315,8.62942209 L103.50315,8.07942209 C103.50315,7.38942209 103.84315,7.04942209 104.53315,7.04942209 L126.34315,7.04942209 C127.03315,7.04942209 127.37315,7.38942209 127.37315,8.07942209 Z M125.82315,3.76942209 L105.04315,3.76942209 L105.04315,12.9394221 L125.82315,12.9394221 L125.82315,3.76942209 Z M123.46315,22.3794221 C122.06315,24.4694221 120.53315,26.4794221 118.87315,28.4194221 C117.21315,30.3594221 115.60315,31.9794221 114.03315,33.2794221 C113.46315,33.7994221 112.94315,33.7694221 112.45315,33.2094221 L112.01315,32.6894221 C111.54315,32.1194221 111.59315,31.5794221 112.16315,31.0694221 C115.38315,28.2194221 118.34315,24.7994221 121.04315,20.7894221 C121.43315,20.1494221 121.95315,20.0294221 122.59315,20.4194221 L123.14315,20.7894221 C123.78315,21.2094221 123.89315,21.7394221 123.47315,22.3694221 L123.46315,22.3794221 Z" id="形状"></path>
                <path d="M153.70315,29.2294221 L150.24315,33.0194221 C149.70315,33.5594221 149.17315,33.5594221 148.66315,33.0194221 L148.18315,32.5794221 C147.64315,32.0094221 147.63315,31.4694221 148.14315,30.9594221 L151.60315,27.1994221 C152.14315,26.6594221 152.67315,26.6494221 153.18315,27.1594221 L153.66315,27.6394221 C154.20315,28.2094221 154.21315,28.7294221 153.70315,29.2194221 L153.70315,29.2294221 Z M154.29315,12.5894221 C154.66315,12.9694221 154.84315,13.5094221 154.84315,14.1894221 L154.84315,25.8694221 C154.84315,27.2194221 155.21315,28.2594221 155.95315,28.9994221 C156.69315,29.7394221 157.72315,30.1094221 159.04315,30.1094221 L180.41315,30.1094221 C181.20315,30.1094221 181.59315,30.4994221 181.59315,31.2894221 L181.59315,31.9494221 C181.59315,32.7394221 181.20315,33.1294221 180.41315,33.1294221 L159.04315,33.1294221 C157.69315,33.1294221 156.47315,32.8094221 155.37315,32.1694221 C154.28315,31.5294221 153.41315,30.6594221 152.77315,29.5494221 C152.13315,28.4394221 151.81315,27.2194221 151.81315,25.8694221 L151.81315,15.0394221 L149.08315,15.0394221 C148.29315,15.0394221 147.90315,14.6494221 147.90315,13.8594221 L147.90315,13.1994221 C147.90315,12.4094221 148.29315,12.0194221 149.08315,12.0194221 L152.69315,12.0194221 C153.38315,12.0194221 153.91315,12.2094221 154.27315,12.5894221 L154.29315,12.5894221 Z M152.75315,1.70942209 L154.92315,7.15942209 C155.19315,7.86942209 154.97315,8.38942209 154.26315,8.70942209 L153.63315,8.92942209 C152.92315,9.24942209 152.40315,9.02942209 152.08315,8.26942209 L149.91315,2.81942209 C149.62315,2.07942209 149.84315,1.56942209 150.57315,1.26942209 L151.20315,1.04942209 C151.94315,0.729422092 152.45315,0.949422092 152.75315,1.70942209 Z M181.04315,8.26942209 L181.04315,8.92942209 C181.04315,9.71942209 180.65315,10.1094221 179.86315,10.1094221 L158.35315,10.1094221 C157.56315,10.1094221 157.17315,9.71942209 157.17315,8.92942209 L157.17315,8.26942209 C157.17315,7.50942209 157.56315,7.12942209 158.35315,7.12942209 L179.86315,7.12942209 C180.65315,7.12942209 181.04315,7.50942209 181.04315,8.26942209 Z M170.61315,1.59942209 C170.54315,5.52942209 170.14315,9.01942209 169.43315,12.0794221 C168.72315,15.1394221 167.58315,17.8894221 166.00315,20.3494221 C164.43315,22.8094221 162.34315,24.9794221 159.74315,26.8694221 C159.15315,27.3394221 158.61315,27.2594221 158.12315,26.6494221 L157.68315,26.0594221 C157.24315,25.4694221 157.34315,24.9194221 157.97315,24.3994221 C160.35315,22.5294221 162.24315,20.4994221 163.62315,18.2994221 C165.01315,16.0994221 166.00315,13.6494221 166.60315,10.9494221 C167.20315,8.24942209 167.53315,5.13942209 167.58315,1.62942209 C167.58315,0.819422092 167.97315,0.409422092 168.76315,0.409422092 L169.42315,0.409422092 C170.21315,0.409422092 170.60315,0.799422092 170.60315,1.58942209 L170.61315,1.59942209 Z M171.27315,8.99942209 C171.86315,12.3894221 172.87315,15.3394221 174.31315,17.8594221 C175.75315,20.3794221 177.72315,22.5594221 180.22315,24.3994221 C180.86315,24.9394221 180.96315,25.4894221 180.51315,26.0594221 L180.07315,26.6494221 C179.58315,27.2594221 179.04315,27.3394221 178.45315,26.8694221 C175.53315,24.5594221 173.25315,21.9794221 171.62315,19.1194221 C169.99315,16.2594221 168.88315,13.0394221 168.29315,9.44942209 C168.14315,8.66942209 168.46315,8.20942209 169.25315,8.08942209 L169.91315,8.01942209 C170.70315,7.89942209 171.15315,8.22942209 171.27315,9.00942209 L171.27315,8.99942209 Z" id="形状"></path>
                <path d="M205.38315,2.14942209 C204.47315,4.01942209 203.49315,5.79942209 202.45315,7.50942209 C201.41315,9.21942209 200.38315,10.6694221 199.37315,11.8794221 C198.88315,12.4694221 198.36315,12.5294221 197.82315,12.0594221 L197.30315,11.6194221 C196.71315,11.1294221 196.65315,10.5894221 197.12315,9.99942209 C199.26315,7.31942209 201.12315,4.29942209 202.72315,0.939422092 C203.04315,0.249422092 203.54315,0.0794220922 204.23315,0.419422092 L204.82315,0.639422092 C205.51315,0.979422092 205.69315,1.48942209 205.37315,2.14942209 L205.38315,2.14942209 Z M230.29315,24.3994221 L230.29315,24.9894221 C230.29315,25.6794221 229.93315,26.0194221 229.22315,26.0194221 L199.09315,26.0194221 C198.38315,26.0194221 198.02315,25.6794221 198.02315,24.9894221 L198.02315,24.3994221 C198.02315,23.6894221 198.38315,23.3294221 199.09315,23.3294221 L229.22315,23.3294221 C229.93315,23.3294221 230.29315,23.6894221 230.29315,24.3994221 Z M207.47315,24.3994221 C207.73315,24.3294221 208.02315,24.3594221 208.34315,24.5094221 L208.97315,24.8794221 C209.63315,25.1994221 209.78315,25.6894221 209.41315,26.3494221 C208.28315,28.1194221 206.88315,29.6194221 205.21315,30.8394221 C203.54315,32.0694221 201.69315,32.9494221 199.65315,33.4894221 C198.91315,33.6894221 198.46315,33.3994221 198.29315,32.6394221 L198.22315,32.0494221 C198.05315,31.2894221 198.34315,30.8094221 199.10315,30.6094221 C200.89315,30.1194221 202.43315,29.3894221 203.72315,28.4194221 C205.01315,27.4494221 206.03315,26.3094221 206.80315,25.0094221 C207.00315,24.6694221 207.22315,24.4594221 207.48315,24.3794221 L207.47315,24.3994221 Z M203.14315,9.58942209 L203.14315,20.0094221 C203.14315,20.7994221 202.75315,21.1894221 201.96315,21.1894221 L201.30315,21.1894221 C200.54315,21.1894221 200.16315,20.7994221 200.16315,20.0094221 L200.16315,9.58942209 C200.16315,8.79942209 200.54315,8.40942209 201.30315,8.40942209 L201.96315,8.40942209 C202.75315,8.40942209 203.14315,8.79942209 203.14315,9.58942209 Z M229.84315,19.0194221 L229.84315,19.6094221 C229.84315,20.2694221 229.51315,20.5994221 228.85315,20.5994221 L206.12315,20.5994221 C205.46315,20.5994221 205.13315,20.2694221 205.13315,19.6094221 L205.13315,19.0194221 C205.13315,18.3794221 205.46315,18.0594221 206.12315,18.0594221 L228.85315,18.0594221 C229.51315,18.0594221 229.84315,18.3794221 229.84315,19.0194221 Z M229.59315,3.47942209 L229.59315,4.02942209 C229.59315,4.68942209 229.26315,5.01942209 228.60315,5.01942209 L206.46315,5.01942209 C205.80315,5.01942209 205.47315,4.68942209 205.47315,4.02942209 L205.47315,3.47942209 C205.47315,2.81942209 205.80315,2.48942209 206.46315,2.48942209 L228.60315,2.48942209 C229.26315,2.48942209 229.59315,2.81942209 229.59315,3.47942209 Z M229.18315,8.74942209 L229.18315,9.29942209 C229.18315,9.93942209 228.86315,10.2594221 228.22315,10.2594221 L206.78315,10.2594221 C206.14315,10.2594221 205.82315,9.93942209 205.82315,9.29942209 L205.82315,8.74942209 C205.82315,8.10942209 206.14315,7.78942209 206.78315,7.78942209 L228.22315,7.78942209 C228.86315,7.78942209 229.18315,8.10942209 229.18315,8.74942209 Z M229.18315,13.8294221 L229.18315,14.3794221 C229.18315,15.0194221 228.86315,15.3394221 228.22315,15.3394221 L206.78315,15.3394221 C206.14315,15.3394221 205.82315,15.0194221 205.82315,14.3794221 L205.82315,13.8294221 C205.82315,13.1894221 206.14315,12.8694221 206.78315,12.8694221 L228.22315,12.8694221 C228.86315,12.8694221 229.18315,13.1894221 229.18315,13.8294221 Z M215.66315,22.4094221 L215.66315,32.6494221 C215.66315,33.4394221 215.27315,33.8294221 214.48315,33.8294221 L213.82315,33.8294221 C213.03315,33.8294221 212.64315,33.4394221 212.64315,32.6494221 L212.64315,22.4094221 C212.64315,21.6294221 213.03315,21.2294221 213.82315,21.2294221 L214.48315,21.2294221 C215.27315,21.2294221 215.66315,21.6194221 215.66315,22.4094221 Z M219.01315,1.40942209 L219.01315,18.1294221 C219.01315,18.9194221 218.62315,19.3094221 217.83315,19.3094221 L217.17315,19.3094221 C216.38315,19.3094221 215.99315,18.9194221 215.99315,18.1294221 L215.99315,1.40942209 C215.99315,0.629422092 216.38315,0.229422092 217.17315,0.229422092 L217.83315,0.229422092 C218.62315,0.229422092 219.01315,0.619422092 219.01315,1.40942209 Z M220.84315,24.3994221 C221.10315,24.4694221 221.32315,24.6794221 221.52315,25.0294221 C222.43315,26.4294221 223.54315,27.6094221 224.85315,28.5694221 C226.16315,29.5294221 227.62315,30.2094221 229.22315,30.6294221 C229.98315,30.8494221 230.28315,31.3294221 230.10315,32.0694221 L230.03315,32.6594221 C229.86315,33.4194221 229.39315,33.6994221 228.63315,33.5094221 C226.47315,32.8994221 224.55315,31.9594221 222.87315,30.7094221 C221.19315,29.4594221 219.87315,28.0094221 218.91315,26.3594221 C218.54315,25.6994221 218.69315,25.2094221 219.35315,24.8894221 L219.98315,24.5194221 C220.30315,24.3694221 220.59315,24.3394221 220.85315,24.4094221 L220.84315,24.3994221 Z" id="形状"></path>
                <path d="M248.48315,1.79942209 C248.85315,1.41942209 249.39315,1.22942209 250.10315,1.22942209 L276.92315,1.22942209 C277.61315,1.22942209 278.14315,1.41942209 278.52315,1.79942209 C278.90315,2.17942209 279.09315,2.71942209 279.09315,3.39942209 L279.09315,30.8794221 C279.09315,31.5894221 278.90315,32.1294221 278.52315,32.4994221 C278.14315,32.8694221 277.60315,33.0494221 276.92315,33.0494221 L250.10315,33.0494221 C249.39315,33.0494221 248.85315,32.8694221 248.48315,32.4994221 C248.11315,32.1294221 247.93315,31.5894221 247.93315,30.8794221 L247.93315,3.39942209 C247.93315,2.70942209 248.11315,2.17942209 248.48315,1.79942209 Z M276.04315,30.0694221 L276.04315,4.20942209 L250.99315,4.20942209 L250.99315,30.0694221 L276.04315,30.0694221 L276.04315,30.0694221 Z M264.36315,15.7394221 C263.33315,17.8494221 261.97315,19.7894221 260.29315,21.5394221 C258.61315,23.2994221 256.70315,24.7494221 254.56315,25.9094221 C253.90315,26.2994221 253.37315,26.1594221 252.98315,25.4694221 L252.69315,24.9194221 C252.49315,24.5794221 252.43315,24.2794221 252.51315,24.0194221 C252.58315,23.7594221 252.79315,23.5394221 253.14315,23.3394221 C255.18315,22.2094221 256.93315,20.8594221 258.41315,19.2894221 C259.88315,17.7194221 260.95315,16.1494221 261.61315,14.5694221 C261.98315,13.8794221 262.49315,13.6894221 263.16315,13.9794221 L263.79315,14.2394221 C264.53315,14.5594221 264.72315,15.0594221 264.38315,15.7494221 L264.36315,15.7394221 Z M253.97315,9.51942209 L273.05315,9.51942209 C273.84315,9.51942209 274.23315,9.90942209 274.23315,10.6994221 L274.23315,11.2894221 C274.23315,12.0794221 273.84315,12.4694221 273.05315,12.4694221 L253.97315,12.4694221 C253.18315,12.4694221 252.79315,12.0794221 252.79315,11.2894221 L252.79315,10.6994221 C252.79315,9.90942209 253.18315,9.51942209 253.97315,9.51942209 Z M264.88315,24.5494221 L266.98315,24.5494221 L266.98315,6.90942209 C266.98315,6.11942209 267.37315,5.72942209 268.16315,5.72942209 L268.79315,5.72942209 C269.58315,5.72942209 269.97315,6.11942209 269.97315,6.90942209 L269.97315,25.3994221 C269.97315,26.8194221 269.25315,27.5394221 267.80315,27.5394221 L264.89315,27.5394221 C264.13315,27.5394221 263.75315,27.1594221 263.75315,26.3994221 L263.75315,25.7394221 C263.75315,24.9494221 264.13315,24.5594221 264.89315,24.5594221 L264.88315,24.5494221 Z" id="形状"></path>
                <path d="M301.38315,7.04942209 L301.38315,17.5894221 C301.38315,20.6394221 301.14315,23.3794221 300.66315,25.8194221 C300.18315,28.2594221 299.36315,30.5794221 298.21315,32.7594221 C297.87315,33.4494221 297.37315,33.6094221 296.74315,33.2394221 L296.19315,32.9494221 C295.55315,32.6094221 295.39315,32.0894221 295.71315,31.3994221 C296.79315,29.4594221 297.54315,27.3894221 297.96315,25.1894221 C298.38315,22.9894221 298.59315,20.4594221 298.59315,17.5794221 L298.59315,7.03942209 C298.59315,6.29942209 298.96315,5.92942209 299.70315,5.92942209 L300.33315,5.92942209 C301.04315,5.92942209 301.40315,6.29942209 301.40315,7.03942209 L301.38315,7.04942209 Z M309.48315,5.60942209 L309.48315,6.30942209 C309.48315,7.06942209 309.09315,7.44942209 308.30315,7.44942209 L297.10315,7.44942209 C296.31315,7.44942209 295.92315,7.06942209 295.92315,6.30942209 L295.92315,5.60942209 C295.92315,4.81942209 296.31315,4.42942209 297.10315,4.42942209 L308.30315,4.42942209 C309.09315,4.42942209 309.48315,4.81942209 309.48315,5.60942209 Z M307.92315,13.4394221 C308.28315,13.7994221 308.45315,14.3294221 308.45315,15.0394221 L308.45315,31.3994221 C308.45315,32.1094221 308.27315,32.6494221 307.92315,32.9994221 C307.56315,33.3594221 307.03315,33.5294221 306.32315,33.5294221 L303.78315,33.5294221 C303.02315,33.5294221 302.64315,33.1394221 302.64315,32.3494221 L302.64315,31.6894221 C302.64315,30.8994221 303.02315,30.5094221 303.78315,30.5094221 L305.66315,30.5094221 L305.66315,15.9194221 L301.17315,15.9194221 C300.41315,15.9194221 300.03315,15.5394221 300.03315,14.7794221 L300.03315,14.0794221 C300.03315,13.2994221 300.41315,12.8994221 301.17315,12.8994221 L306.33315,12.8994221 C307.04315,12.8994221 307.58315,13.0794221 307.93315,13.4294221 L307.92315,13.4394221 Z M304.22315,1.40942209 L304.22315,4.75942209 C304.22315,5.54942209 303.84315,5.93942209 303.08315,5.93942209 L302.38315,5.93942209 C301.59315,5.93942209 301.20315,5.54942209 301.20315,4.75942209 L301.20315,1.40942209 C301.20315,0.629422092 301.59315,0.229422092 302.38315,0.229422092 L303.08315,0.229422092 C303.84315,0.229422092 304.22315,0.619422092 304.22315,1.40942209 Z M330.04315,25.9094221 L330.04315,26.4994221 C330.04315,27.2394221 329.67315,27.6094221 328.93315,27.6094221 L310.84315,27.6094221 C310.10315,27.6094221 309.73315,27.2394221 309.73315,26.4994221 L309.73315,25.9094221 C309.73315,25.1694221 310.10315,24.7994221 310.84315,24.7994221 L328.93315,24.7994221 C329.67315,24.7994221 330.04315,25.1694221 330.04315,25.9094221 Z M329.41315,10.1394221 L329.41315,10.7694221 C329.41315,11.4794221 329.04315,11.8394221 328.31315,11.8394221 L311.44315,11.8394221 C310.70315,11.8394221 310.33315,11.4794221 310.33315,10.7694221 L310.33315,10.1394221 C310.33315,9.39942209 310.70315,9.02942209 311.44315,9.02942209 L328.31315,9.02942209 C329.05315,9.02942209 329.41315,9.39942209 329.41315,10.1394221 Z M316.30315,27.9394221 L316.78315,28.3494221 C317.30315,28.8394221 317.31315,29.3394221 316.82315,29.8594221 C316.13315,30.5994221 315.40315,31.2994221 314.61315,31.9594221 C313.82315,32.6194221 313.15315,33.1594221 312.58315,33.5794221 C311.99315,33.9694221 311.49315,33.8694221 311.07315,33.2894221 L310.78315,32.7394221 C310.36315,32.1994221 310.46315,31.7194221 311.07315,31.2994221 C312.32315,30.3394221 313.56315,29.2494221 314.79315,28.0194221 C315.31315,27.4994221 315.81315,27.4794221 316.30315,27.9494221 L316.30315,27.9394221 Z M313.94315,1.33942209 L313.94315,2.99942209 L328.56315,2.99942209 C329.27315,2.99942209 329.63315,3.33942209 329.63315,4.02942209 L329.63315,4.65942209 C329.63315,5.36942209 329.27315,5.72942209 328.56315,5.72942209 L313.05315,5.72942209 C311.67315,5.72942209 310.99315,5.03942209 310.99315,3.66942209 L310.99315,1.34942209 C310.99315,0.609422092 311.38315,0.239422092 312.17315,0.239422092 L312.80315,0.239422092 C313.56315,0.239422092 313.94315,0.609422092 313.94315,1.34942209 L313.94315,1.33942209 Z M315.23315,7.96942209 L315.23315,25.0194221 C315.23315,25.7594221 314.86315,26.1294221 314.12315,26.1294221 L313.49315,26.1294221 C312.75315,26.1294221 312.38315,25.7594221 312.38315,25.0194221 L312.38315,7.96942209 C312.38315,7.25942209 312.75315,6.89942209 313.49315,6.89942209 L314.12315,6.89942209 C314.86315,6.89942209 315.23315,7.25942209 315.23315,7.96942209 Z M325.91315,15.4894221 L325.91315,16.0394221 C325.91315,16.7494221 325.55315,17.1094221 324.84315,17.1094221 L314.93315,17.1094221 C314.22315,17.1094221 313.86315,16.7494221 313.86315,16.0394221 L313.86315,15.4894221 C313.86315,14.7794221 314.22315,14.4194221 314.93315,14.4194221 L324.84315,14.4194221 C325.55315,14.4194221 325.91315,14.7794221 325.91315,15.4894221 Z M325.91315,20.6094221 L325.91315,21.1594221 C325.91315,21.8694221 325.55315,22.2294221 324.84315,22.2294221 L314.93315,22.2294221 C314.22315,22.2294221 313.86315,21.8694221 313.86315,21.1594221 L313.86315,20.6094221 C313.86315,19.8994221 314.22315,19.5394221 314.93315,19.5394221 L324.84315,19.5394221 C325.55315,19.5394221 325.91315,19.8994221 325.91315,20.6094221 Z M324.99315,28.0494221 C325.53315,28.6394221 326.13315,29.2194221 326.79315,29.7794221 C327.45315,30.3494221 328.08315,30.8394221 328.67315,31.2494221 C329.26315,31.6394221 329.37315,32.1494221 329.00315,32.7594221 L328.71315,33.2794221 C328.34315,33.8694221 327.85315,33.9694221 327.24315,33.5694221 C326.33315,32.9294221 325.48315,32.2794221 324.70315,31.5994221 C323.91315,30.9194221 323.31315,30.3294221 322.89315,29.8094221 C322.45315,29.3194221 322.48315,28.8294221 323.00315,28.3394221 L323.48315,27.9294221 C323.97315,27.4594221 324.47315,27.4994221 324.99315,28.0394221 L324.99315,28.0494221 Z M327.35315,7.96942209 L327.35315,25.0194221 C327.35315,25.7594221 326.98315,26.1294221 326.24315,26.1294221 L325.61315,26.1294221 C324.90315,26.1294221 324.54315,25.7594221 324.54315,25.0194221 L324.54315,7.96942209 C324.54315,7.25942209 324.90315,6.89942209 325.61315,6.89942209 L326.24315,6.89942209 C326.98315,6.89942209 327.35315,7.25942209 327.35315,7.96942209 Z" id="形状"></path>
                <path d="M378.74315,3.76942209 L378.74315,4.42942209 C378.74315,5.21942209 378.35315,5.60942209 377.56315,5.60942209 L346.91315,5.60942209 C346.12315,5.60942209 345.73315,5.21942209 345.73315,4.42942209 L345.73315,3.76942209 C345.73315,2.97942209 346.12315,2.58942209 346.91315,2.58942209 L377.56315,2.58942209 C378.35315,2.58942209 378.74315,2.97942209 378.74315,3.76942209 Z M362.01315,5.31942209 L362.01315,32.6194221 C362.01315,33.4294221 361.62315,33.8394221 360.83315,33.8394221 L360.09315,33.8394221 C359.30315,33.8394221 358.91315,33.4294221 358.91315,32.6194221 L358.91315,5.31942209 C358.91315,4.50942209 359.30315,4.09942209 360.09315,4.09942209 L360.83315,4.09942209 C361.62315,4.09942209 362.01315,4.50942209 362.01315,5.31942209 Z M369.82315,12.9794221 L375.79315,24.6894221 C376.13315,25.3994221 375.95315,25.9194221 375.24315,26.2394221 L374.65315,26.5694221 C373.96315,26.9094221 373.45315,26.7294221 373.10315,26.0194221 L367.13315,14.3094221 C366.79315,13.5994221 366.97315,13.0694221 367.68315,12.7294221 L368.27315,12.3994221 C368.96315,12.0794221 369.47315,12.2794221 369.82315,12.9894221 L369.82315,12.9794221 Z" id="形状"></path>
                <path d="M428.02315,3.69942209 L428.02315,4.28942209 C428.02315,5.02942209 427.65315,5.39942209 426.91315,5.39942209 L396.26315,5.39942209 C395.52315,5.39942209 395.15315,5.02942209 395.15315,4.28942209 L395.15315,3.69942209 C395.15315,2.95942209 395.52315,2.58942209 396.26315,2.58942209 L426.91315,2.58942209 C427.65315,2.58942209 428.02315,2.95942209 428.02315,3.69942209 Z M426.51315,10.5294221 C426.88315,10.8894221 427.06315,11.4094221 427.06315,12.0994221 L427.06315,31.5094221 C427.06315,32.1994221 426.88315,32.7194221 426.53315,33.0794221 C426.17315,33.4394221 425.65315,33.6094221 424.96315,33.6094221 L421.90315,33.6094221 C421.16315,33.6094221 420.79315,33.2394221 420.79315,32.4994221 L420.79315,31.9494221 C420.79315,31.2094221 421.16315,30.8394221 421.90315,30.8394221 L424.04315,30.8394221 L424.04315,12.7894221 L399.14315,12.7894221 L399.14315,32.6094221 C399.14315,33.3894221 398.75315,33.7894221 397.96315,33.7894221 L397.30315,33.7894221 C396.51315,33.7894221 396.12315,33.3994221 396.12315,32.6094221 L396.12315,12.0894221 C396.12315,11.4294221 396.30315,10.9094221 396.65315,10.5394221 C397.01315,10.1694221 397.53315,9.98942209 398.22315,9.98942209 L424.96315,9.98942209 C425.62315,9.98942209 426.14315,10.1694221 426.51315,10.5194221 L426.51315,10.5294221 Z M408.68315,14.4494221 L409.12315,14.9694221 C409.54315,15.5594221 409.45315,16.0594221 408.86315,16.4794221 C407.88315,17.2394221 406.78315,18.0094221 405.58315,18.7794221 C404.38315,19.5494221 403.33315,20.1594221 402.45315,20.5994221 C401.81315,20.9394221 401.32315,20.7794221 400.98315,20.1194221 L400.69315,19.5994221 C400.37315,18.9394221 400.53315,18.4194221 401.17315,18.0494221 C402.28315,17.4594221 403.36315,16.8194221 404.43315,16.1194221 C405.50315,15.4194221 406.40315,14.7894221 407.14315,14.2194221 C407.75315,13.7994221 408.27315,13.8794221 408.69315,14.4394221 L408.68315,14.4494221 Z M405.26315,7.22942209 L406.14315,9.76942209 C406.41315,10.5094221 406.18315,11.0094221 405.44315,11.2794221 L404.81315,11.4994221 C404.07315,11.7694221 403.57315,11.5394221 403.30315,10.7994221 L402.42315,8.29942209 C402.15315,7.53942209 402.38315,7.02942209 403.12315,6.78942209 L403.75315,6.52942209 C404.49315,6.25942209 404.99315,6.48942209 405.26315,7.22942209 Z M404.87315,20.6594221 C405.23315,20.2994221 405.72315,20.1294221 406.36315,20.1294221 L416.82315,20.1294221 C417.46315,20.1294221 417.96315,20.3094221 418.31315,20.6594221 C418.67315,21.0194221 418.84315,21.5094221 418.84315,22.1494221 L418.84315,29.2594221 C418.84315,29.8994221 418.66315,30.3994221 418.31315,30.7494221 C417.95315,31.1094221 417.46315,31.2794221 416.82315,31.2794221 L406.36315,31.2794221 C405.72315,31.2794221 405.22315,31.0994221 404.87315,30.7494221 C404.52315,30.3994221 404.34315,29.8994221 404.34315,29.2594221 L404.34315,22.1494221 C404.34315,21.5094221 404.52315,21.0094221 404.87315,20.6594221 Z M415.98315,22.8894221 L407.21315,22.8894221 L407.21315,28.4894221 L415.98315,28.4894221 L415.98315,22.8894221 Z M413.14315,1.18942209 L413.14315,2.84942209 C413.14315,3.60942209 412.77315,3.98942209 412.03315,3.98942209 L411.15315,3.98942209 C410.41315,3.98942209 410.04315,3.60942209 410.04315,2.84942209 L410.04315,1.18942209 C410.04315,0.429422092 410.41315,0.0494220922 411.15315,0.0494220922 L412.03315,0.0494220922 C412.77315,0.0494220922 413.14315,0.429422092 413.14315,1.18942209 Z M419.13315,16.4394221 C420.25315,17.1494221 421.21315,17.6894221 422.02315,18.0594221 C422.66315,18.4294221 422.82315,18.9394221 422.50315,19.6094221 L422.21315,20.1294221 C421.87315,20.7894221 421.37315,20.9494221 420.74315,20.6094221 C419.59315,19.9694221 418.41315,19.2694221 417.22315,18.5094221 C416.03315,17.7494221 415.07315,17.0694221 414.33315,16.4794221 C413.76315,16.0594221 413.68315,15.5594221 414.07315,14.9694221 L414.51315,14.4494221 C414.93315,13.8894221 415.44315,13.8094221 416.06315,14.2294221 C416.99315,14.9894221 418.02315,15.7294221 419.14315,16.4394221 L419.13315,16.4394221 Z M420.77315,8.29942209 L419.89315,10.7994221 C419.62315,11.5394221 419.12315,11.7694221 418.38315,11.4994221 L417.75315,11.2794221 C417.01315,11.0094221 416.78315,10.5094221 417.05315,9.76942209 L417.93315,7.22942209 C418.20315,6.48942209 418.70315,6.25942209 419.44315,6.52942209 L420.07315,6.78942209 C420.81315,7.03942209 421.04315,7.53942209 420.77315,8.29942209 Z" id="形状"></path>
                <path d="M445.28315,18.6194221 C445.64315,18.2494221 446.17315,18.0694221 446.88315,18.0694221 L457.01315,18.0694221 C457.70315,18.0694221 458.23315,18.2494221 458.59315,18.5994221 C458.96315,18.9594221 459.14315,19.4894221 459.14315,20.1994221 L459.14315,31.1394221 C459.14315,31.8294221 458.96315,32.3594221 458.61315,32.7194221 C458.25315,33.0894221 457.72315,33.2694221 457.01315,33.2694221 L446.88315,33.2694221 C446.19315,33.2694221 445.66315,33.0894221 445.30315,32.7394221 C444.93315,32.3794221 444.75315,31.8494221 444.75315,31.1394221 L444.75315,20.1994221 C444.75315,19.5094221 444.93315,18.9794221 445.28315,18.6194221 Z M456.20315,21.0494221 L447.69315,21.0494221 L447.69315,30.2994221 L456.20315,30.2994221 L456.20315,21.0494221 Z M449.17315,1.63942209 C449.54315,1.26942209 450.09315,1.08942209 450.83315,1.08942209 L471.09315,1.08942209 C471.83315,1.08942209 472.38315,1.26942209 472.75315,1.63942209 C473.12315,2.00942209 473.30315,2.55942209 473.30315,3.29942209 L473.30315,12.3294221 C473.30315,13.0694221 473.12315,13.6194221 472.75315,13.9894221 C472.38315,14.3594221 471.83315,14.5394221 471.09315,14.5394221 L450.83315,14.5394221 C450.09315,14.5394221 449.54315,14.3594221 449.17315,13.9894221 C448.80315,13.6194221 448.62315,13.0694221 448.62315,12.3294221 L448.62315,3.29942209 C448.62315,2.55942209 448.80315,2.00942209 449.17315,1.63942209 Z M470.20315,4.06942209 L451.71315,4.06942209 L451.71315,11.5494221 L470.20315,11.5494221 L470.20315,4.06942209 Z M463.29315,18.6194221 C463.65315,18.2494221 464.18315,18.0694221 464.89315,18.0694221 L475.02315,18.0694221 C475.71315,18.0694221 476.24315,18.2494221 476.60315,18.5994221 C476.96315,18.9494221 477.15315,19.4894221 477.15315,20.1994221 L477.15315,31.1394221 C477.15315,31.8294221 476.97315,32.3594221 476.62315,32.7194221 C476.26315,33.0894221 475.73315,33.2694221 475.02315,33.2694221 L464.89315,33.2694221 C464.20315,33.2694221 463.67315,33.0894221 463.31315,32.7394221 C462.94315,32.3794221 462.76315,31.8494221 462.76315,31.1394221 L462.76315,20.1994221 C462.76315,19.5094221 462.94315,18.9794221 463.29315,18.6194221 Z M474.22315,21.0494221 L465.71315,21.0494221 L465.71315,30.2994221 L474.22315,30.2994221 L474.22315,21.0494221 Z" id="形状"></path>
                <path d="M526.19315,4.72942209 L526.19315,5.35942209 C526.19315,6.14942209 525.80315,6.53942209 525.01315,6.53942209 L495.62315,6.53942209 C494.83315,6.53942209 494.44315,6.14942209 494.44315,5.35942209 L494.44315,4.72942209 C494.44315,3.94942209 494.83315,3.54942209 495.62315,3.54942209 L525.01315,3.54942209 C525.80315,3.54942209 526.19315,3.93942209 526.19315,4.72942209 Z M518.27315,15.3794221 L518.86315,15.7494221 C519.55315,16.1394221 519.68315,16.6694221 519.27315,17.3294221 C517.67315,19.9294221 515.70315,22.3394221 513.36315,24.5494221 C511.01315,26.7594221 508.39315,28.6594221 505.50315,30.2394221 C502.60315,31.8194221 499.59315,33.0294221 496.47315,33.8694221 C496.10315,33.9694221 495.79315,33.9394221 495.55315,33.7994221 C495.30315,33.6494221 495.12315,33.3794221 495.00315,32.9894221 L494.93315,32.3994221 C494.71315,31.6094221 494.99315,31.1094221 495.78315,30.8894221 C498.82315,30.0794221 501.70315,28.9194221 504.40315,27.4094221 C507.10315,25.8994221 509.50315,24.1494221 511.60315,22.1594221 C513.70315,20.1694221 515.39315,18.0594221 516.67315,15.8194221 C517.11315,15.1594221 517.65315,15.0094221 518.29315,15.3794221 L518.27315,15.3794221 Z M504.38315,8.92942209 L504.82315,9.40942209 C505.36315,9.97942209 505.35315,10.5294221 504.78315,11.0694221 C502.59315,13.1094221 500.19315,14.9494221 497.56315,16.5994221 C496.87315,16.9894221 496.33315,16.8594221 495.94315,16.1894221 L495.57315,15.5994221 C495.18315,14.9394221 495.32315,14.4094221 496.01315,14.0194221 C497.31315,13.1894221 498.55315,12.3194221 499.73315,11.4194221 C500.91315,10.5194221 501.89315,9.67942209 502.68315,8.89942209 C503.25315,8.32942209 503.81315,8.34942209 504.37315,8.93942209 L504.38315,8.92942209 Z M503.98315,15.8194221 C505.48315,18.1994221 507.30315,20.3894221 509.45315,22.3894221 C511.60315,24.3894221 513.99315,26.1194221 516.61315,27.5694221 C519.24315,29.0194221 521.99315,30.1194221 524.86315,30.8894221 C525.62315,31.1094221 525.90315,31.6094221 525.71315,32.3994221 L525.64315,32.9894221 C525.52315,33.3794221 525.34315,33.6494221 525.11315,33.7994221 C524.88315,33.9494221 524.56315,33.9594221 524.17315,33.8394221 C520.90315,32.9794221 517.79315,31.7294221 514.83315,30.0794221 C511.87315,28.4394221 509.24315,26.5094221 506.93315,24.2994221 C504.62315,22.0894221 502.77315,19.7694221 501.37315,17.3394221 C500.95315,16.6794221 501.09315,16.1494221 501.78315,15.7594221 L502.37315,15.3894221 C503.03315,15.0194221 503.57315,15.1694221 503.99315,15.8294221 L503.98315,15.8194221 Z M511.86315,1.59942209 L511.86315,3.62942209 C511.86315,4.43942209 511.47315,4.84942209 510.68315,4.84942209 L509.94315,4.84942209 C509.15315,4.84942209 508.76315,4.43942209 508.76315,3.62942209 L508.76315,1.59942209 C508.76315,0.789422092 509.15315,0.379422092 509.94315,0.379422092 L510.68315,0.379422092 C511.47315,0.379422092 511.86315,0.789422092 511.86315,1.59942209 Z M524.61315,14.0094221 C525.30315,14.3994221 525.44315,14.9294221 525.05315,15.5894221 L524.68315,16.1794221 C524.29315,16.8394221 523.75315,16.9794221 523.06315,16.5894221 C521.68315,15.7094221 520.35315,14.7694221 519.06315,13.7694221 C517.77315,12.7694221 516.70315,11.8694221 515.84315,11.0594221 C515.27315,10.5194221 515.26315,9.96942209 515.80315,9.39942209 L516.24315,8.91942209 C516.81315,8.32942209 517.37315,8.31942209 517.93315,8.87942209 C520.09315,10.8494221 522.31315,12.5494221 524.60315,13.9994221 L524.61315,14.0094221 Z" id="形状"></path>
                <path d="M555.62315,20.3094221 L556.14315,20.6794221 C556.75315,21.1194221 556.85315,21.6394221 556.43315,22.2294221 C554.83315,24.3694221 553.08315,26.3394221 551.18315,28.1394221 C549.28315,29.9494221 547.43315,31.4394221 545.64315,32.6194221 C545.00315,33.0394221 544.47315,32.9094221 544.06315,32.2494221 L543.69315,31.6994221 C543.27315,31.0894221 543.40315,30.5694221 544.06315,30.1494221 C547.84315,27.5694221 551.16315,24.3894221 554.01315,20.6094221 C554.48315,19.9694221 555.02315,19.8694221 555.63315,20.3194221 L555.62315,20.3094221 Z M547.70315,17.7694221 L547.70315,19.0594221 L573.01315,19.0594221 C573.70315,19.0594221 574.23315,19.2394221 574.59315,19.5894221 C574.96315,19.9494221 575.14315,20.4694221 575.14315,21.1594221 L575.14315,31.6894221 C575.14315,32.3494221 574.96315,32.8694221 574.61315,33.2594221 C574.25315,33.6394221 573.72315,33.8294221 573.01315,33.8294221 L569.62315,33.8294221 C568.86315,33.8294221 568.48315,33.4494221 568.48315,32.6894221 L568.48315,32.0594221 C568.48315,31.2994221 568.86315,30.9194221 569.62315,30.9194221 L572.12315,30.9194221 L572.12315,21.9294221 L546.81315,21.9294221 C546.12315,21.9294221 545.59315,21.7494221 545.23315,21.3994221 C544.86315,21.0394221 544.68315,20.5194221 544.68315,19.8294221 L544.68315,17.7694221 C544.68315,17.1794221 545.07315,16.8894221 545.86315,16.8894221 L546.56315,16.8894221 C547.32315,16.8894221 547.70315,17.1794221 547.70315,17.7694221 Z M546.77315,1.57942209 C547.13315,1.21942209 547.65315,1.04942209 548.34315,1.04942209 L571.03315,1.04942209 C571.69315,1.04942209 572.21315,1.21942209 572.58315,1.56942209 C572.95315,1.90942209 573.13315,2.43942209 573.13315,3.14942209 L573.13315,13.5694221 C573.13315,14.2294221 572.95315,14.7494221 572.60315,15.1194221 C572.24315,15.4894221 571.72315,15.6694221 571.03315,15.6694221 L548.34315,15.6694221 C547.68315,15.6694221 547.16315,15.4894221 546.79315,15.1394221 C546.42315,14.7794221 546.24315,14.2594221 546.24315,13.5694221 L546.24315,3.14942209 C546.24315,2.45942209 546.42315,1.93942209 546.77315,1.57942209 L546.77315,1.57942209 Z M571.61315,8.07942209 L571.61315,8.62942209 C571.61315,9.31942209 571.27315,9.65942209 570.58315,9.65942209 L548.77315,9.65942209 C548.08315,9.65942209 547.74315,9.31942209 547.74315,8.62942209 L547.74315,8.07942209 C547.74315,7.38942209 548.08315,7.04942209 548.77315,7.04942209 L570.58315,7.04942209 C571.27315,7.04942209 571.61315,7.38942209 571.61315,8.07942209 Z M570.06315,3.76942209 L549.28315,3.76942209 L549.28315,12.9394221 L570.06315,12.9394221 L570.06315,3.76942209 Z M567.71315,22.3794221 C566.31315,24.4694221 564.78315,26.4794221 563.12315,28.4194221 C561.46315,30.3594221 559.85315,31.9794221 558.28315,33.2794221 C557.71315,33.7994221 557.19315,33.7694221 556.70315,33.2094221 L556.26315,32.6894221 C555.79315,32.1194221 555.84315,31.5794221 556.41315,31.0694221 C559.63315,28.2194221 562.59315,24.7994221 565.29315,20.7894221 C565.68315,20.1494221 566.20315,20.0294221 566.84315,20.4194221 L567.39315,20.7894221 C568.03315,21.2094221 568.14315,21.7394221 567.72315,22.3694221 L567.71315,22.3794221 Z" id="形状"></path>
                <path d="M625.76315,20.7494221 L625.76315,21.4094221 C625.76315,22.1994221 625.37315,22.5894221 624.58315,22.5894221 L593.49315,22.5894221 C592.70315,22.5894221 592.31315,22.1994221 592.31315,21.4094221 L592.31315,20.7494221 C592.31315,19.9594221 592.70315,19.5694221 593.49315,19.5694221 L624.58315,19.5694221 C625.36315,19.5694221 625.76315,19.9594221 625.76315,20.7494221 Z M624.18315,2.69942209 L624.18315,3.35942209 C624.18315,4.14942209 623.79315,4.53942209 623.00315,4.53942209 L595.08315,4.53942209 C594.29315,4.53942209 593.90315,4.14942209 593.90315,3.35942209 L593.90315,2.69942209 C593.90315,1.90942209 594.29315,1.51942209 595.08315,1.51942209 L623.00315,1.51942209 C623.79315,1.51942209 624.18315,1.90942209 624.18315,2.69942209 Z M599.39315,8.29942209 L600.83315,15.1894221 C601.00315,15.9794221 600.69315,16.4594221 599.91315,16.6294221 L599.25315,16.6994221 C598.46315,16.8694221 598.00315,16.5694221 597.85315,15.7794221 L596.41315,8.88942209 C596.24315,8.09942209 596.54315,7.61942209 597.33315,7.44942209 L597.99315,7.37942209 C598.75315,7.20942209 599.22315,7.50942209 599.39315,8.29942209 Z M610.62315,4.24942209 L610.62315,32.6894221 C610.62315,33.4994221 610.23315,33.9094221 609.44315,33.9094221 L608.70315,33.9094221 C607.91315,33.9094221 607.52315,33.4994221 607.52315,32.6894221 L607.52315,4.24942209 C607.52315,3.43942209 607.91315,3.02942209 608.70315,3.02942209 L609.44315,3.02942209 C610.23315,3.02942209 610.62315,3.43942209 610.62315,4.24942209 Z M621.67315,8.88942209 L620.23315,15.7794221 C620.08315,16.5694221 619.62315,16.8694221 618.83315,16.6994221 L618.17315,16.6294221 C617.38315,16.4594221 617.08315,15.9794221 617.25315,15.1894221 L618.69315,8.29942209 C618.86315,7.50942209 619.33315,7.20942209 620.09315,7.37942209 L620.75315,7.44942209 C621.53315,7.61942209 621.84315,8.09942209 621.67315,8.88942209 Z" id="形状"></path>
                <path d="M655.60315,0.379422092 L656.12315,0.819422092 C656.76315,1.38942209 656.80315,1.95942209 656.23315,2.54942209 L647.87315,10.8394221 L670.38315,10.8394221 L670.38315,7.81942209 C670.38315,6.98942209 670.80315,6.56942209 671.63315,6.56942209 L672.37315,6.56942209 C673.20315,6.56942209 673.62315,6.98942209 673.62315,7.81942209 L673.62315,11.6494221 C673.62315,12.3894221 673.42315,12.9494221 673.03315,13.3294221 C672.64315,13.7094221 672.07315,13.8994221 671.34315,13.8994221 L645.11315,13.8994221 C644.27315,13.8994221 643.65315,13.7694221 643.25315,13.5094221 C642.84315,13.2494221 642.68315,12.8794221 642.75315,12.3894221 C642.82315,11.8994221 643.16315,11.3294221 643.74315,10.6994221 L653.83315,0.459422092 C654.42315,-0.130577908 655.01315,-0.150577908 655.60315,0.389422092 L655.60315,0.379422092 Z M646.79315,18.3194221 L670.00315,18.3194221 C671.47315,18.3194221 672.21315,19.0594221 672.21315,20.5294221 L672.21315,30.9894221 C672.21315,32.4394221 671.47315,33.1594221 670.00315,33.1594221 L646.79315,33.1594221 C645.32315,33.1594221 644.58315,32.4394221 644.58315,30.9894221 L644.58315,20.5294221 C644.58315,19.0594221 645.32315,18.3194221 646.79315,18.3194221 Z M669.08315,30.1794221 L669.08315,21.2994221 L647.72315,21.2994221 L647.72315,30.1794221 L669.08315,30.1794221 Z" id="形状"></path>
            </g>
            <path d="M572.73,91.51 L572.73,49.6 C572.73,45.76 571.73,42.82 569.71,40.83 C567.7,38.84 564.73,37.84 560.82,37.84 L539.11,37.84 L540.62,52.92 L552.98,52.92 C553.76,52.92 554.36,53.17 554.84,53.62 C555.29,54.1 555.54,54.7 555.54,55.48 L555.54,92.12 C555.47,95.86 554.56,99.58 552.9,103.23 C551.22,106.87 548.96,110.24 546.12,113.33 C543.31,116.45 540.09,119.08 536.55,121.22 L541.68,136.45 C545.73,134.21 549.37,131.83 552.64,129.29 C555.93,126.75 558.67,124.16 560.88,121.55 C563.09,118.94 564.62,116.42 565.5,113.99 C567.31,117.99 569.87,121.4 573.16,124.24 C576.48,127.1 580.55,129.29 585.42,130.82 C590.29,132.35 595.95,133.11 602.43,133.13 L672.39,133.13 L676.31,117.3 L602.73,117.3 C598.61,117.32 594.81,116.92 591.35,116.12 C587.88,115.29 584.82,113.93 582.2,111.97 C579.56,110.04 577.43,107.4 575.79,104.06 C574.18,100.74 573.15,96.55 572.72,91.52 M633.79,43.57 L670.12,43.57 L670.12,28.49 L633.48,28.49 L633.48,0.3 L615.69,0.3 L615.69,28.49 L581.62,28.49 L582.98,43.57 L614.64,43.57 C613.74,50.13 611.9,56.13 609.14,61.64 C606.38,67.14 602.48,72.29 597.43,77.12 C592.38,81.92 585.97,86.57 578.16,91.07 L582.98,109.31 C590.39,105.69 596.88,101.82 602.4,97.7 C607.93,93.58 612.63,89.18 616.47,84.53 C620.34,79.88 623.51,74.98 625.94,69.8 C630.29,77.77 635.87,85.1 642.67,91.81 C649.51,98.49 657.35,104.63 666.19,110.2 L671.32,89.54 C665.21,85.87 659.71,81.7 654.79,77.05 C649.87,72.4 645.62,67.28 642.08,61.67 C638.54,56.07 635.77,50.04 633.79,43.55 L633.79,43.57 Z M576.49,26.53 L576.49,10.55 L543.47,0.3 L543.47,16.28 L576.49,26.53 Z M409.59,43.57 C410.19,41.16 410.65,38.64 410.95,36.06 C411.25,33.47 411.4,30.83 411.4,28.19 L411.4,21.86 C411.4,20.5 412.15,19.75 413.66,19.6 L449.39,15.23 L449.39,1.42108547e-14 L404.46,4.67 C401.04,5.02 398.45,6.03 396.64,7.69 C394.83,9.35 393.93,11.86 393.9,15.23 L393.9,29.85 C393.88,33.54 393.7,36.84 393.32,39.7 C392.94,42.59 392.49,45.08 391.94,47.19 L388.62,47.79 L392.39,62.57 L442.75,52.32 C446.14,51.62 448.45,50.13 449.66,47.87 C450.89,45.61 451.04,42.77 450.14,39.35 L445.92,24.12 L429.03,24.12 L432.95,38.74 L409.58,43.56 L409.59,43.57 Z M464.78,99.35 C464.93,98.45 465.06,97.57 465.13,96.71 C465.2,95.85 465.23,94.98 465.23,94.07 L465.23,83.52 L447.44,83.52 L447.44,93.92 C447.49,96.73 446.46,99.47 444.35,102.14 C442.26,104.8 438.87,107.34 434.2,109.7 C429.5,112.06 423.3,114.17 415.58,116.03 C407.84,117.89 398.37,119.42 387.13,120.6 L390.9,137.03 C402.79,135.57 413.06,133.71 421.78,131.45 C430.47,129.16 437.76,126.55 443.59,123.56 C449.44,120.6 454.04,117.28 457.38,113.66 C461.73,117.68 466.85,121.22 472.76,124.31 C478.67,127.4 485.55,130.04 493.42,132.2 C501.31,134.36 510.33,136.07 520.56,137.33 L523.88,120.59 C516.02,120.16 508.63,119.16 501.72,117.6 C494.83,116.02 488.33,113.76 482.22,110.77 C476.11,107.81 470.28,103.99 464.78,99.34 L464.78,99.35 Z M483.02,20.35 L499.45,20.35 C500.13,20.35 500.66,20.58 501.03,20.98 C501.41,21.38 501.63,21.93 501.71,22.61 C501.96,25.25 502.04,27.94 501.99,30.68 C501.92,33.39 501.64,36.08 501.11,38.75 C500.83,40.11 500.33,41.16 499.63,41.92 C498.93,42.67 497.85,43.13 496.44,43.28 C494.15,43.51 491.77,43.51 489.33,43.31 C486.87,43.08 484.58,42.68 482.42,42.08 L486.49,57.16 C489.4,57.76 492.52,58.19 495.89,58.44 C499.23,58.67 502.6,58.64 505.94,58.37 C508.7,58.09 510.94,57.36 512.72,56.13 C514.48,54.92 515.84,53.32 516.82,51.33 C517.78,49.34 518.43,47.08 518.76,44.49 C519.41,39.82 519.77,35.17 519.79,30.54 C519.79,25.92 519.61,21.27 519.21,16.59 C518.91,12.9 517.83,10.13 516.02,8.32 C514.24,6.49 511.77,5.58 508.66,5.58 L454.53,5.58 L456.04,20.36 L465.09,20.36 C464.89,23.95 464.46,27.32 463.86,30.46 C463.26,33.6 462.4,36.69 461.27,39.68 C460.14,42.7 458.68,45.79 456.9,48.98 C455.09,52.17 452.9,55.59 450.32,59.26 L470.22,59.26 C473.11,55.01 475.45,50.82 477.23,46.67 C479.02,42.5 480.35,38.28 481.25,33.96 C482.15,29.64 482.76,25.11 483.03,20.36 L483.02,20.35 Z M399.34,75.68 L399.34,108.55 L416.83,108.55 L416.83,80.96 C416.83,80.28 417.06,79.73 417.46,79.33 C417.86,78.93 418.41,78.7 419.09,78.7 L492.82,78.7 C493.52,78.7 494.05,78.93 494.45,79.33 C494.88,79.73 495.08,80.28 495.08,80.96 L495.08,108.55 L512.57,108.55 L512.57,75.68 C512.57,71.74 511.57,68.74 509.55,66.71 C507.54,64.65 504.57,63.62 500.65,63.62 L411.24,63.62 C407.32,63.62 404.35,64.65 402.35,66.71 C400.34,68.75 399.33,71.74 399.33,75.68 L399.34,75.68 Z M287.02,22.91 L372.35,22.91 L372.35,7.23 L238.47,7.23 L239.83,22.91 L268.63,22.91 L268.63,43.11 C268.63,51.78 268,59.59 266.72,66.58 C265.44,73.57 263.48,79.92 260.81,85.68 C258.15,91.43 254.75,96.81 250.63,101.81 C246.48,106.81 241.58,111.66 235.9,116.38 L241.18,135.83 C248.39,130.7 254.65,125.45 259.95,120.12 C265.23,114.79 269.67,109.19 273.27,103.31 C276.84,97.43 279.68,91.1 281.76,84.31 C283.85,77.55 285.3,70.14 286.11,62.1 L338.28,62.1 C339.03,62.1 339.56,62.28 339.91,62.65 C340.26,63.03 340.46,63.61 340.54,64.36 C340.89,68.86 341.12,73.51 341.24,78.28 C341.36,83.08 341.36,87.85 341.24,92.65 C341.11,97.42 340.89,102.07 340.54,106.57 C340.36,108.93 339.91,110.87 339.23,112.4 C338.55,113.93 337.5,115.14 336.11,115.97 C334.73,116.8 332.87,117.33 330.58,117.58 C327.99,117.88 325.05,118.03 321.76,118.01 C318.47,117.99 315,117.76 311.36,117.36 C307.72,116.96 304.07,116.33 300.43,115.47 L304.5,131.15 C308.29,131.9 312.06,132.48 315.83,132.91 C319.62,133.31 323.27,133.56 326.79,133.61 C330.31,133.68 333.57,133.56 336.61,133.26 C341.66,132.76 345.81,131.63 349,129.87 C352.19,128.08 354.6,125.72 356.19,122.73 C357.8,119.74 358.7,116.17 358.93,112 C359.46,103.15 359.68,94.26 359.66,85.29 C359.64,76.32 359.38,67.4 358.93,58.48 C358.78,55.54 358.28,53.18 357.37,51.39 C356.49,49.63 355.18,48.35 353.45,47.57 C351.72,46.79 349.53,46.39 346.87,46.41 L287.02,46.41 L287.02,22.89 L287.02,22.91 Z" id="形状" fill="#231815" fill-rule="nonzero"></path>
            <g id="编组" transform="translate(-0, 5.28)">
                <path d="M6.32,44.46 L28.24,44.46 C37.18,44.46 44.47,37.17 44.47,28.23 L44.47,16.23 C44.47,7.29 37.18,1.42108547e-14 28.24,1.42108547e-14 L6.32,1.42108547e-14 C2.84,1.42108547e-14 1.42108547e-14,2.84 1.42108547e-14,6.32 L1.42108547e-14,39.6 C1.42108547e-14,42.28 2.19,44.47 4.87,44.47 L6.32,44.47" id="路径" fill="#E60012"></path>
                <path d="M26.44,134.12 L4.91,134.12 C2.35,134.12 0.28,132.05 0.28,129.49 L0.28,94.32 C0.28,91.76 2.35,89.69 4.91,89.69 L26.44,89.69 C55.44,89.69 78.94,66.18 78.94,37.19 L78.94,4.63 C78.94,2.07 81.01,4.97379915e-14 83.57,4.97379915e-14 L118.74,4.97379915e-14 C121.3,4.97379915e-14 123.37,2.07 123.37,4.63 L123.37,37.19 C123.37,90.73 79.97,134.13 26.43,134.13 L26.44,134.12 Z" id="路径" fill="#004199" fill-rule="nonzero"></path>
                <path d="M110.7,129.33 L110.7,94.04 C110.7,91.6 112.62,89.71 115.05,89.49 C139.42,87.29 158.57,66.74 158.57,41.82 L158.57,4.63 C158.57,2.07 160.64,7.10542736e-15 163.2,7.10542736e-15 L198.37,7.10542736e-15 C200.93,7.10542736e-15 203,2.07 203,4.63 L203,41.82 C203,91.11 164.17,131.5 115.49,134 C112.87,134.13 110.69,131.95 110.69,129.33 L110.7,129.33 Z" id="路径" fill="#004199" fill-rule="nonzero"></path>
            </g>
        </g>
    </g>
</svg>